<svg version="1.1" xmlns="http://www.w3.org/2000/svg" xmlns:xlink="http://www.w3.org/1999/xlink" width="50px" height="50px" viewBox="0,0,256,256"><g fill="#20c997" fill-rule="nonzero" stroke="none" stroke-width="1" stroke-linecap="butt" stroke-linejoin="miter" stroke-miterlimit="10" stroke-dasharray="" stroke-dashoffset="0" font-family="none" font-weight="none" font-size="none" text-anchor="none" style="mix-blend-mode: normal"><g transform="scale(5.12,5.12)"><path d="M25,1c-1.07422,0 -2.14453,0.10547 -3,0.3125c-0.42969,0.10156 -0.77734,0.21484 -1.125,0.40625c-0.17578,0.09375 -0.35937,0.21875 -0.53125,0.40625c-0.08984,0.10156 -0.18359,0.24609 -0.25,0.40625c-0.63281,0.13672 -1.26172,0.3125 -1.875,0.5c-0.47266,-0.19141 -2.07031,-0.80469 -4.25,-0.9375c-0.32031,-0.01953 -0.65625,-0.03516 -1,-0.03125c-2.39453,0.03516 -5.21875,0.75 -7.6875,3.21875c-5.25781,5.25781 -2.63281,12.0625 -2.25,12.96875c-0.18359,0.60547 -0.36328,1.21875 -0.5,1.84375c-0.16016,0.06641 -0.30469,0.16016 -0.40625,0.25c-0.1875,0.17188 -0.3125,0.35547 -0.40625,0.53125c-0.19141,0.34766 -0.30469,0.69531 -0.40625,1.125c-0.20703,0.85547 -0.3125,1.92578 -0.3125,3c0,1.07422 0.10547,2.14453 0.3125,3c0.10156,0.42969 0.21484,0.77734 0.40625,1.125c0.09375,0.17578 0.21875,0.35938 0.40625,0.53125c0.10156,0.08984 0.24609,0.18359 0.40625,0.25c0.13672,0.62891 0.3125,1.23438 0.5,1.84375c-0.38281,0.90625 -3.00781,7.71094 2.25,12.96875c5.25781,5.25781 12.0625,2.63281 12.96875,2.25c0.59375,0.18359 1.19922,0.33594 1.8125,0.46875c0.06641,0.17969 0.18359,0.32813 0.28125,0.4375c0.17188,0.1875 0.35547,0.3125 0.53125,0.40625c0.34766,0.19141 0.69531,0.30469 1.125,0.40625c0.85547,0.20703 1.92578,0.3125 3,0.3125c1.07422,0 2.14453,-0.10547 3,-0.3125c0.42969,-0.10156 0.77734,-0.21484 1.125,-0.40625c0.17578,-0.09375 0.35938,-0.21875 0.53125,-0.40625c0.08984,-0.10156 0.18359,-0.24609 0.25,-0.40625c0.625,-0.13672 1.23828,-0.3125 1.84375,-0.5c0.90625,0.38281 7.71094,3.00781 12.96875,-2.25c5.20313,-5.20312 2.67578,-11.91406 2.25,-12.9375c0.19141,-0.61328 0.36328,-1.23828 0.5,-1.875c0.16016,-0.06641 0.30469,-0.16016 0.40625,-0.25c0.1875,-0.17187 0.3125,-0.35547 0.40625,-0.53125c0.19141,-0.34766 0.30469,-0.69531 0.40625,-1.125c0.20703,-0.85547 0.3125,-1.92578 0.3125,-3c0,-1.07422 -0.10547,-2.14453 -0.3125,-3c-0.10156,-0.42969 -0.21484,-0.77734 -0.40625,-1.125c-0.09375,-0.17578 -0.21875,-0.35937 -0.40625,-0.53125c-0.10156,-0.08984 -0.24609,-0.18359 -0.40625,-0.25c-0.13672,-0.62891 -0.3125,-1.23437 -0.5,-1.84375c0.38281,-0.90625 3.00781,-7.71094 -2.25,-12.96875c-2.46875,-2.46875 -5.29297,-3.18359 -7.6875,-3.21875c-0.34375,-0.00391 -0.67969,0.01172 -1,0.03125c-2.23047,0.13281 -3.85937,0.76563 -4.28125,0.9375c-0.60156,-0.18359 -1.21875,-0.36328 -1.84375,-0.5c-0.06641,-0.16016 -0.16016,-0.30469 -0.25,-0.40625c-0.17187,-0.1875 -0.35547,-0.3125 -0.53125,-0.40625c-0.34766,-0.19141 -0.69531,-0.30469 -1.125,-0.40625c-0.85547,-0.20703 -1.92578,-0.3125 -3,-0.3125zM25,3c0.92578,0 1.85547,0.09375 2.5,0.25c0.23438,0.05859 0.375,0.13672 0.5,0.1875v9.6875c-0.15625,0.25391 -0.1875,0.5625 -0.09375,0.84375c-0.3125,-0.10937 -1.15234,-0.375 -2.90625,-0.375c-1.85547,0 -2.70312,0.3125 -2.96875,0.40625c0.10547,-0.26172 0.09375,-0.55859 -0.03125,-0.8125v-9.3125c0.10547,-0.14844 0.17188,-0.32031 0.1875,-0.5c0.09375,-0.04297 0.16406,-0.08984 0.3125,-0.125c0.64453,-0.15625 1.57422,-0.25 2.5,-0.25zM13.09375,4.03125c0.78125,-0.01172 1.49609,0.03906 2.125,0.15625c-4.83203,2.27734 -8.75391,6.16797 -11.03125,11c-0.40234,-2.21484 -0.34375,-5.59375 2.53125,-8.46875c2.07031,-2.07031 4.40234,-2.66016 6.375,-2.6875zM36.09375,4.03125c2.12109,-0.13672 4.82422,0.32422 7.1875,2.6875c2.89063,2.89063 2.94141,6.28516 2.53125,8.5c-2.27344,-4.82812 -6.17187,-8.75391 -11,-11.03125c0.39453,-0.07031 0.82422,-0.125 1.28125,-0.15625zM20,4.59375v8.40625c-3.15625,1.31641 -5.65234,3.84375 -6.96875,7h-8.4375c1.85156,-7.58203 7.82422,-13.55469 15.40625,-15.40625zM30,4.625c7.57031,1.85156 13.52344,7.80469 15.375,15.375h-8.375c-1.31641,-3.15625 -3.84375,-5.64844 -7,-6.96875zM20.3125,15.0625c0.35547,0.56641 0.98047,0.9375 1.6875,0.9375c0.12891,0.00391 0.25391,-0.01953 0.375,-0.0625c0,0 0.76172,-0.34375 2.625,-0.34375c1.86328,0 2.625,0.34375 2.625,0.34375c0.12109,0.04297 0.24609,0.06641 0.375,0.0625c0.70703,0 1.33203,-0.37109 1.6875,-0.9375c2.30469,1.08984 4.16016,2.94531 5.25,5.25c-0.56641,0.35547 -0.9375,0.98047 -0.9375,1.6875c-0.00391,0.12891 0.01953,0.25391 0.0625,0.375c0,0 0.34375,0.76172 0.34375,2.625c0,1.86328 -0.34375,2.625 -0.34375,2.625c-0.04297,0.12109 -0.06641,0.24609 -0.0625,0.375c0,0.70703 0.37109,1.33203 0.9375,1.6875c-1.08984,2.30078 -2.94141,4.16406 -5.25,5.25c-0.35547,-0.56641 -0.98047,-0.9375 -1.6875,-0.9375c-0.12891,-0.00391 -0.25391,0.01953 -0.375,0.0625c0,0 -0.76172,0.34375 -2.625,0.34375c-1.86328,0 -2.625,-0.34375 -2.625,-0.34375c-0.12109,-0.04297 -0.24609,-0.06641 -0.375,-0.0625c-0.71484,0 -1.33203,0.39063 -1.6875,0.96875c-2.29687,-1.08984 -4.16406,-2.97656 -5.25,-5.28125c0.56641,-0.35547 0.9375,-0.98047 0.9375,-1.6875c0.00391,-0.12891 -0.01953,-0.25391 -0.0625,-0.375c0,0 -0.34375,-0.76172 -0.34375,-2.625c0,-1.86328 0.34375,-2.625 0.34375,-2.625c0.04297,-0.12109 0.06641,-0.24609 0.0625,-0.375c0,-0.69531 -0.35547,-1.32812 -0.90625,-1.6875c1.08594,-2.30078 2.91406,-4.16406 5.21875,-5.25zM3.59375,22h10.40625c-0.08594,0.24219 -0.40625,1.10156 -0.40625,3c0,1.75391 0.26563,2.59375 0.375,2.90625c-0.14844,-0.05859 -0.30859,-0.07812 -0.46875,-0.0625c-0.15625,0.01563 -0.30469,0.07031 -0.4375,0.15625h-9.625c-0.05078,-0.125 -0.12891,-0.26562 -0.1875,-0.5c-0.15625,-0.64453 -0.25,-1.57422 -0.25,-2.5c0,-0.92578 0.09375,-1.85547 0.25,-2.5c0.05469,-0.22266 0.13672,-0.35156 0.1875,-0.46875c0.05469,-0.00781 0.10547,-0.01562 0.15625,-0.03125zM36,22h10.5625c0.05078,0.125 0.12891,0.26563 0.1875,0.5c0.15625,0.64453 0.25,1.57422 0.25,2.5c0,0.92578 -0.09375,1.85547 -0.25,2.5c-0.04297,0.17578 -0.07812,0.27344 -0.125,0.375c-0.03125,0 -0.0625,0 -0.09375,0c-0.13281,0.01563 -0.25781,0.05859 -0.375,0.125h-10.15625c0.08594,-0.24219 0.40625,-1.10156 0.40625,-3c0,-1.89844 -0.32031,-2.75781 -0.40625,-3zM4.625,30h8.40625c1.31641,3.14844 3.81641,5.65234 6.96875,6.96875v8.40625c-7.57031,-1.85547 -13.52344,-7.80078 -15.375,-15.375zM36.96875,30h8.4375c-1.85156,7.58594 -7.82031,13.55469 -15.40625,15.40625v-8.40625c3.14844,-1.32031 5.65234,-3.84766 6.96875,-7zM45.8125,34.78125c0.41016,2.21484 0.35938,5.60938 -2.53125,8.5c-2.89062,2.89063 -6.28516,2.94141 -8.5,2.53125c4.83984,-2.27734 8.75,-6.19922 11.03125,-11.03125zM4.1875,34.8125c2.28125,4.82422 6.19922,8.73047 11.03125,11c-2.21484,0.41016 -5.60937,0.35938 -8.5,-2.53125c-2.875,-2.875 -2.93359,-6.25391 -2.53125,-8.46875zM28,36c-0.08203,0.22266 -0.08203,0.46484 0,0.6875v9.53125c-0.05469,0.11719 -0.08594,0.24609 -0.09375,0.375c-0.10937,0.04688 -0.21484,0.10938 -0.40625,0.15625c-0.64453,0.15625 -1.57422,0.25 -2.5,0.25c-0.92578,0 -1.85547,-0.09375 -2.5,-0.25c-0.17578,-0.04297 -0.27344,-0.07812 -0.375,-0.125c-0.00391,-0.16406 -0.04687,-0.32422 -0.125,-0.46875v-9.1875c0.19531,-0.27344 0.24219,-0.625 0.125,-0.9375c0.33203,0.11328 1.16406,0.375 2.875,0.375c1.89844,0 2.75781,-0.32031 3,-0.40625z"></path></g></g></svg>