<svg version="1.1" xmlns="http://www.w3.org/2000/svg" xmlns:xlink="http://www.w3.org/1999/xlink" width="50px" height="50px" viewBox="0,0,256,256"><g fill="#20c997" fill-rule="nonzero" stroke="none" stroke-width="1" stroke-linecap="butt" stroke-linejoin="miter" stroke-miterlimit="10" stroke-dasharray="" stroke-dashoffset="0" font-family="none" font-weight="none" font-size="none" text-anchor="none" style="mix-blend-mode: normal"><g transform="scale(5.12,5.12)"><path d="M28.99219,8c-5.066,0 -9.36286,2.6725 -11.50586,7.0625c-1.1,-0.692 -2.4247,-1.0625 -3.8457,-1.0625c-3.637,0 -6.41567,2.76672 -6.63867,6.51172c-4.461,1.508 -7.00195,5.04836 -7.00195,9.81836c0,5.331 4.33792,9.66992 9.66992,9.66992h1.33008v-2h-1.33008c-4.229,0 -7.66992,-3.44092 -7.66992,-7.66992c0,-5.556 3.92563,-7.46923 6.26563,-8.11523l0.76172,-0.20898l-0.04102,-1.00586c0,-2.851 2.0013,-5 4.6543,-5c1.408,0 2.66597,0.48428 3.54297,1.36328l1.10352,1.10547l0.54297,-1.46484c1.598,-4.319 5.49211,-7.00391 10.16211,-7.00391c6.172,0 11.00781,4.832 11.00781,11c0,0.415 -0.0307,0.85386 -0.0957,1.38086l-0.08008,1.12109h1.13086c3.687,0 7.04492,3.62066 7.04492,7.59766c0,2.853 -1.71419,5.37292 -4.36719,6.41992c-0.807,0.319 -1.66016,0.48047 -2.53516,0.48047h-2.09766v2h2.09766c1.127,0 2.22753,-0.20714 3.26953,-0.61914c3.422,-1.35 5.63281,-4.60125 5.63281,-8.28125c0,-4.729 -3.61563,-8.92048 -8.01562,-9.52148c0.01,-0.198 0.01563,-0.39013 0.01563,-0.57812c0,-7.29 -5.71381,-13 -13.00781,-13zM24.98438,24.98633c-0.55152,0.00862 -0.99193,0.46214 -0.98437,1.01367v16.20313c-0.79604,0.19416 -1.51445,0.52627 -1.99805,1.07031c-0.68327,0.76868 -1.00195,1.75434 -1.00195,2.72656c0,0.97222 0.31868,1.95788 1.00195,2.72656c0.68327,0.76868 1.74805,1.27344 2.99805,1.27344c1.25,0 2.31477,-0.50476 2.99805,-1.27344c0.68327,-0.76868 1.00195,-1.75434 1.00195,-2.72656c0,-0.97222 -0.31868,-1.95788 -1.00195,-2.72656c-0.4836,-0.54405 -1.20201,-0.87616 -1.99805,-1.07031v-16.20312c0.0037,-0.2703 -0.10218,-0.53059 -0.29351,-0.72155c-0.19133,-0.19097 -0.45182,-0.29634 -0.72212,-0.29212zM18.98828,24.98828c-0.29429,0.00644 -0.5708,0.14219 -0.75586,0.37109l-3.37891,4.05273c-1.19762,1.43756 -1.85352,3.25033 -1.85352,5.12109v7.66992c-0.79604,0.19416 -1.51445,0.52627 -1.99805,1.07031c-0.68327,0.76868 -1.00195,1.75434 -1.00195,2.72656c0,0.97222 0.31868,1.95788 1.00195,2.72656c0.68327,0.76868 1.74805,1.27344 2.99805,1.27344c1.25,0 2.31477,-0.50476 2.99805,-1.27344c0.68327,-0.76868 1.00195,-1.75434 1.00195,-2.72656c0,-0.97222 -0.31868,-1.95788 -1.00195,-2.72656c-0.4836,-0.54405 -1.20201,-0.87616 -1.99805,-1.07031v-7.66992c0,-1.40324 0.49225,-2.76145 1.39063,-3.83984l3.37695,-4.05273c0.25758,-0.29922 0.31502,-0.72199 0.1466,-1.07908c-0.16842,-0.3571 -0.53117,-0.58169 -0.9259,-0.57326zM30.98047,24.98828c-0.38907,0.00391 -0.74056,0.23312 -0.90103,0.58758c-0.16047,0.35446 -0.10079,0.76982 0.15299,1.06476l3.37695,4.05273c0.89854,1.07855 1.39063,2.43546 1.39063,3.83984v7.66992c-0.79604,0.19416 -1.51445,0.52627 -1.99805,1.07031c-0.68327,0.76868 -1.00195,1.75434 -1.00195,2.72656c0,0.97222 0.31868,1.95788 1.00195,2.72656c0.68327,0.76868 1.74805,1.27344 2.99805,1.27344c1.25,0 2.31477,-0.50476 2.99805,-1.27344c0.68327,-0.76868 1.00195,-1.75434 1.00195,-2.72656c0,-0.97222 -0.31868,-1.95788 -1.00195,-2.72656c-0.4836,-0.54405 -1.20201,-0.87616 -1.99805,-1.07031v-7.66992c0,-1.87162 -0.65606,-3.68369 -1.85352,-5.12109l-3.37891,-4.05273c-0.19198,-0.23734 -0.48185,-0.37401 -0.78711,-0.37109zM13.9707,44.01172c0.02016,0.00126 0.04035,0.00191 0.06055,0.00195c0.72132,0.01007 1.16065,0.23908 1.4707,0.58789c0.31672,0.35627 0.49805,0.87066 0.49805,1.39844c0,0.52778 -0.18132,1.04212 -0.49805,1.39844c-0.31673,0.35632 -0.75195,0.60156 -1.50195,0.60156c-0.75,0 -1.18523,-0.24524 -1.50195,-0.60156c-0.31673,-0.35632 -0.49805,-0.87066 -0.49805,-1.39844c0,-0.52778 0.18132,-1.04212 0.49805,-1.39844c0.31055,-0.34937 0.74923,-0.5805 1.47266,-0.58984zM24.9707,44.01172c0.02016,0.00126 0.04035,0.00191 0.06055,0.00195c0.72132,0.01007 1.16065,0.23908 1.4707,0.58789c0.31672,0.35627 0.49805,0.87066 0.49805,1.39844c0,0.52778 -0.18132,1.04212 -0.49805,1.39844c-0.31673,0.35632 -0.75195,0.60156 -1.50195,0.60156c-0.75,0 -1.18523,-0.24524 -1.50195,-0.60156c-0.31673,-0.35632 -0.49805,-0.87066 -0.49805,-1.39844c0,-0.52778 0.18132,-1.04212 0.49805,-1.39844c0.31055,-0.34937 0.74922,-0.5805 1.47266,-0.58984zM35.9707,44.01172c0.02016,0.00126 0.04035,0.00191 0.06055,0.00195c0.72132,0.01007 1.16065,0.23908 1.4707,0.58789c0.31672,0.35627 0.49805,0.87066 0.49805,1.39844c0,0.52778 -0.18132,1.04212 -0.49805,1.39844c-0.31673,0.35632 -0.75195,0.60156 -1.50195,0.60156c-0.75,0 -1.18523,-0.24524 -1.50195,-0.60156c-0.31673,-0.35632 -0.49805,-0.87066 -0.49805,-1.39844c0,-0.52778 0.18132,-1.04212 0.49805,-1.39844c0.31055,-0.34937 0.74923,-0.5805 1.47266,-0.58984z"></path></g></g></svg>