<svg version="1.1" xmlns="http://www.w3.org/2000/svg" xmlns:xlink="http://www.w3.org/1999/xlink" width="50px" height="50px" viewBox="0,0,256,256"><g fill="#000000" fill-rule="nonzero" stroke="none" stroke-width="1" stroke-linecap="butt" stroke-linejoin="miter" stroke-miterlimit="10" stroke-dasharray="" stroke-dashoffset="0" font-family="none" font-weight="none" font-size="none" text-anchor="none" style="mix-blend-mode: normal"><g transform="scale(5.12,5.12)"><path d="M24.90625,3.96875c-0.03125,0.00781 -0.0625,0.01953 -0.09375,0.03125h-13.8125c-0.03125,0 -0.0625,0 -0.09375,0c-0.03125,0 -0.0625,0 -0.09375,0c-0.16016,0.03516 -0.3125,0.10938 -0.4375,0.21875l-5.90625,4.9375l-0.09375,0.0625c-0.04297,0.02734 -0.08594,0.05859 -0.125,0.09375c-0.01172,0.01172 -0.01953,0.01953 -0.03125,0.03125c0,0.01172 0,0.01953 0,0.03125c-0.01172,0 -0.01953,0 -0.03125,0c0,0.01953 0,0.04297 0,0.0625c-0.02344,0.03125 -0.04297,0.0625 -0.0625,0.09375c-0.03906,0.05859 -0.07031,0.12109 -0.09375,0.1875c-0.01562,0.0625 -0.02734,0.125 -0.03125,0.1875c-0.00781,0.0625 -0.00781,0.125 0,0.1875v34.90625c0,0.55078 0.44922,1 1,1h40c0.55078,0 1,-0.44922 1,-1v-34.84375c0.00391,-0.05078 0.00391,-0.10547 0,-0.15625c0,-0.01953 0,-0.04297 0,-0.0625c0,-0.01172 0,-0.01953 0,-0.03125c0,-0.01953 0,-0.04297 0,-0.0625c-0.01172,-0.01172 -0.01953,-0.01953 -0.03125,-0.03125c0,-0.01953 0,-0.04297 0,-0.0625c0,-0.01172 0,-0.01953 0,-0.03125c-0.00781,-0.01953 -0.01953,-0.04297 -0.03125,-0.0625c-0.01172,-0.01172 -0.01953,-0.01953 -0.03125,-0.03125c0,-0.01953 0,-0.04297 0,-0.0625c-0.01172,-0.01172 -0.01953,-0.01953 -0.03125,-0.03125c-0.00781,-0.01953 -0.01953,-0.04297 -0.03125,-0.0625c-0.01172,-0.01172 -0.01953,-0.01953 -0.03125,-0.03125c-0.01172,-0.01172 -0.01953,-0.01953 -0.03125,-0.03125c-0.00781,-0.01953 -0.01953,-0.04297 -0.03125,-0.0625c-0.01172,-0.01172 -0.01953,-0.01953 -0.03125,-0.03125c-0.01172,-0.01172 -0.01953,-0.01953 -0.03125,-0.03125c-0.01172,-0.01172 -0.01953,-0.01953 -0.03125,-0.03125c-0.01172,-0.01172 -0.01953,-0.01953 -0.03125,-0.03125l-0.09375,-0.0625c-0.01953,-0.02344 -0.03906,-0.04297 -0.0625,-0.0625l-5.84375,-4.875c-0.17578,-0.14062 -0.39844,-0.21875 -0.625,-0.21875h-13.78125c-0.10156,-0.02734 -0.20703,-0.03906 -0.3125,-0.03125zM11.375,6h12.625v3h-16.21875zM26,6h12.625l3.59375,3h-16.21875zM6,11h38v33h-38zM21.5,15c-1.38281,0 -2.5,1.11719 -2.5,2.5c0,1.38281 1.11719,2.5 2.5,2.5h7c1.38281,0 2.5,-1.11719 2.5,-2.5c0,-1.38281 -1.11719,-2.5 -2.5,-2.5zM21.5,17h7c0.21484,0 0.5,0.28516 0.5,0.5c0,0.21484 -0.28516,0.5 -0.5,0.5h-7c-0.21484,0 -0.5,-0.28516 -0.5,-0.5c0,-0.21484 0.28516,-0.5 0.5,-0.5zM31,31l-3,3h2v4h2v-4h2zM38,31l-3,3h2v4h2v-4h2zM28,39v2h13v-2z"></path></g></g></svg>