<svg version="1.1" xmlns="http://www.w3.org/2000/svg" xmlns:xlink="http://www.w3.org/1999/xlink" width="50px" height="50px" viewBox="0,0,256,256"><g fill="#000000" fill-rule="nonzero" stroke="none" stroke-width="1" stroke-linecap="butt" stroke-linejoin="miter" stroke-miterlimit="10" stroke-dasharray="" stroke-dashoffset="0" font-family="none" font-weight="none" font-size="none" text-anchor="none" style="mix-blend-mode: normal"><g transform="scale(5.12,5.12)"><path d="M29,4.53125c-5.21484,0 -9.62891,3.12109 -11.75,7.53125c-1.12891,-0.77734 -2.4375,-1.34375 -3.90625,-1.34375c-3.72656,0 -6.69922,2.94922 -6.90625,6.625c-3.72656,1.34375 -6.4375,4.82031 -6.4375,9c0,5.32813 4.32813,9.65625 9.65625,9.65625h8.34375c0.35938,0.00391 0.69531,-0.18359 0.87891,-0.49609c0.17969,-0.3125 0.17969,-0.69531 0,-1.00781c-0.18359,-0.3125 -0.51953,-0.5 -0.87891,-0.49609h-8.34375c-4.25,0 -7.65625,-3.41016 -7.65625,-7.65625c0,-3.53516 2.38281,-6.51172 5.625,-7.40625c0.44141,-0.12891 0.73828,-0.54297 0.71875,-1c-0.00391,-0.14062 0,-0.21094 0,-0.21875c0,-2.77734 2.22266,-5 5,-5c1.39063,0 2.65625,0.55859 3.5625,1.46875c0.23828,0.23047 0.57813,0.33203 0.90234,0.26172c0.32813,-0.07031 0.59766,-0.29687 0.72266,-0.60547c1.57422,-4.25 5.66016,-7.3125 10.46875,-7.3125c6.17188,0 11.15625,4.98828 11.15625,11.15625c0,0.45703 -0.03516,0.90625 -0.09375,1.375c-0.03516,0.28125 0.05078,0.5625 0.23438,0.77734c0.18359,0.21484 0.45313,0.33984 0.73438,0.34766h0.0625c3.82422,0 6.90625,3.08203 6.90625,6.90625c0,3.82422 -3.08203,6.90625 -6.90625,6.90625h-9.09375c-0.35937,-0.00391 -0.69531,0.18359 -0.87891,0.49609c-0.17969,0.3125 -0.17969,0.69531 0,1.00781c0.18359,0.3125 0.51953,0.5 0.87891,0.49609h9.09375c4.90625,0 8.90625,-4 8.90625,-8.90625c0,-4.55078 -3.49219,-8.16797 -7.90625,-8.6875c0.01563,-0.24219 0.0625,-0.46875 0.0625,-0.71875c0,-7.25 -5.90625,-13.15625 -13.15625,-13.15625zM25,21.59375l-0.71875,0.6875l-5,5c-0.39844,0.39844 -0.39844,1.03906 0,1.4375c0.39844,0.39844 1.03906,0.39844 1.4375,0l3.28125,-3.28125v17.5625c-0.00391,0.35938 0.18359,0.69531 0.49609,0.87891c0.3125,0.17969 0.69531,0.17969 1.00781,0c0.3125,-0.18359 0.5,-0.51953 0.49609,-0.87891v-17.5625l3.28125,3.28125c0.39844,0.39844 1.03906,0.39844 1.4375,0c0.39844,-0.39844 0.39844,-1.03906 0,-1.4375l-5,-5z"></path></g></g></svg>