<svg version="1.1" xmlns="http://www.w3.org/2000/svg" xmlns:xlink="http://www.w3.org/1999/xlink" width="128px" height="128px" viewBox="0,0,256,256"><g fill="none" fill-rule="nonzero" stroke="none" stroke-width="1" stroke-linecap="butt" stroke-linejoin="miter" stroke-miterlimit="10" stroke-dasharray="" stroke-dashoffset="0" font-family="none" font-weight="none" font-size="none" text-anchor="none" style="mix-blend-mode: normal"><g transform="scale(2,2)"><path d="M86,9h-54c-5.5,0 -10,4.5 -10,10v90c0,5.5 4.5,10 10,10h64c5.5,0 10,-4.5 10,-10v-80c0,-11 -9,-20 -20,-20z" fill="#ffffff"></path><path transform="translate(-41.07958,104.83158) rotate(-45.001)" d="M106,82c-11.04569,0 -20,8.95431 -20,20c0,11.04569 8.95431,20 20,20c11.04569,0 20,-8.95431 20,-20c0,-11.04569 -8.95431,-20 -20,-20z" fill="#71c2ff"></path><path d="M106,115c-1.7,0 -3,-1.3 -3,-3v-11.8l-2.9,2.9c-1.2,1.2 -3.1,1.2 -4.2,0c-1.2,-1.2 -1.2,-3.1 0,-4.2l8,-8c0.9,-0.9 2.1,-1.1 3.3,-0.7c1.1,0.5 1.9,1.6 1.9,2.8v19c-0.1,1.7 -1.4,3 -3.1,3z" fill="#ffffff"></path><path d="M114,104c-0.8,0 -1.5,-0.3 -2.1,-0.9l-8,-8c-1.2,-1.2 -1.2,-3.1 0,-4.2c1.2,-1.2 3.1,-1.2 4.2,0l8,8c1.2,1.2 1.2,3.1 0,4.2c-0.6,0.6 -1.3,0.9 -2.1,0.9z" fill="#ffffff"></path><g fill="#444b54"><path d="M106,39c-0.1,0 -0.1,0 0,0c-1.7,0 -3,1.3 -3,3v25c0,1.7 1.3,3 3,3v0c1.7,0 3,-1.3 3,-3v-25c-0.1,-1.7 -1.4,-3 -3,-3z"></path><path d="M30,122h46c1.7,0 3,-1.3 3,-3c0,-1.7 -1.3,-3 -3,-3h-46c-1.7,0 -5,-3 -5,-7v-90c0,-3.9 3.1,-7 7,-7h51v7c0,7.2 5.8,13 13,13h9.6c0.1,0 0.2,0 0.4,0v0c1.2,0 2.3,-0.8 2.8,-1.8c0.2,-0.4 0.3,-0.8 0.3,-1.2c0,-0.1 0,-0.3 0,-0.4c-0.1,-6 -2.5,-11.6 -6.7,-15.9c-4.5,-4.3 -10.2,-6.7 -16.4,-6.7v0v0v0h-54c-7.2,0 -13,5.8 -13,13v90c0,7.3 5.9,13 11,13zM102.7,26h-6.7c-3.9,0 -7,-3.1 -7,-7v-6.7c3.4,0.6 6.5,2.2 9,4.7c2.5,2.5 4.1,5.6 4.7,9z"></path></g></g></g></svg>